<svg width="838" height="801" viewBox="0 0 838 801" fill="none" xmlns="http://www.w3.org/2000/svg">
<rect width="838" height="801" fill="url(#paint0_linear_864_62)"/>
<path d="M259.394 362.196V438.802H241.755V406.628H195.755V438.802H178V362.196H195.755V391.415H241.755V362.196H259.394Z" fill="white"/>
<path d="M275.547 362.196H293.501V438.802H275.547V362.196Z" fill="white"/>
<path d="M384.477 386.931C384.477 402.143 372.7 411.772 353.722 411.772H327.006V438.802H309.666V362.196H353.722C372.587 362.196 384.477 371.938 384.477 386.931ZM366.925 386.931C366.925 379.817 361.58 375.771 352.091 375.771H327.013V398.317H352.091C361.58 398.317 366.925 394.158 366.925 386.938V386.931Z" fill="white"/>
<path d="M473.05 386.931C473.05 402.143 461.179 411.772 442.049 411.772H415.119V438.802H397.641V362.196H442.049C461.065 362.196 473.05 371.938 473.05 386.931ZM455.35 386.931C455.35 379.817 449.963 375.771 440.398 375.771H415.119V398.317H440.398C449.963 398.317 455.35 394.158 455.35 386.938V386.931Z" fill="white"/>
<path d="M483.227 400.719C483.227 377.475 500.156 361 526.969 361C553.783 361 570.605 377.475 570.605 400.719C570.605 423.963 553.897 440 526.969 440C500.042 440 483.227 423.963 483.227 400.719ZM552.687 400.719C552.687 386.646 542.902 376.168 526.855 376.168C510.809 376.168 501.138 386.646 501.138 400.719C501.138 414.792 510.702 424.832 526.855 424.832C543.009 424.832 552.687 414.792 552.687 400.719Z" fill="white"/>
<path d="M579.58 429.517L585.053 414.788C593.702 420.46 605.087 424.932 620.202 424.932C633.012 424.932 641.115 421.767 641.115 415.875C641.115 411.072 635.642 410.203 623.704 408.677C598.955 405.625 581.877 401.697 581.877 384.566C581.877 369.293 595.347 361 618.231 361C632.027 361 646.262 364.271 654.471 368.531L650.749 383.804C643.632 379.876 631.701 376.167 618.337 376.167C604.974 376.167 599.941 379.219 599.941 383.585C599.941 388.388 607.165 389.914 620.414 391.553C641.987 394.174 659.179 397.226 659.179 414.576C659.179 430.506 644.071 440 620.528 440C605.747 440 590.852 436.178 579.58 429.524V429.517Z" fill="white"/>
<defs>
<linearGradient id="paint0_linear_864_62" x1="419" y1="0" x2="419" y2="801" gradientUnits="userSpaceOnUse">
<stop stop-color="#2B2B2B"/>
<stop offset="0.5"/>
<stop offset="1" stop-color="#2B2B2B"/>
</linearGradient>
</defs>
</svg>
